<svg id="Layer_1" data-name="Layer 1" xmlns="http://www.w3.org/2000/svg" viewBox="0 0 371.96 112.16"><defs><style>.cls-2{fill:#22193a}</style></defs><path d="M1127.27 241.12a18.72 18.72 0 1018.73 18.72 18.74 18.74 0 00-18.73-18.72z" transform="translate(-774.02 -166.39)" fill="#fc0"/><path class="cls-2" d="M971.9 168.38v22.48a52.43 52.43 0 00-7.1-9c-10-10.1-23.6-15.44-39.35-15.44-31.42 0-49.88 21.27-54.3 45.19-4-22.8-21-43.2-53.07-43.2H774v108.02h44.06c15.91 0 29.42-5.2 39.09-15a53.14 53.14 0 0013.9-27.6c4.1 23.1 21.49 44.62 54.38 44.62 17.3 0 31.71-6.1 41.69-17.63 8.57-9.89 13.37-23.35 13.53-37.91a60.55 60.55 0 00-4.42-23.48h27.69v77h32.62v-77h32v77h32.61v-108H971.9zm-138.07 70.41c-3.67 3.77-9 5.68-15.75 5.68H806.5v-44.41h11.58c19.44 0 21.4 16.55 21.54 21.61.19 6.92-1.93 13.15-5.79 17.12zm91.62 8.47c-20.19 0-22.81-17-23-24.26-.19-7.6 2.36-14.87 6.83-19.46 4-4.07 9.41-6.13 16.17-6.13s12.08 2 16 6c4.51 4.59 7 11.72 6.89 19.54-.4 21.94-16.14 24.31-22.89 24.31z" transform="translate(-774.02 -166.39)"/><path class="cls-2" d="M336.19 1.99h34.13v34.13h-34.13z"/></svg>